<?xml version="1.0" encoding="UTF-8"?>
<svg id="Capa_1" xmlns="http://www.w3.org/2000/svg" version="1.1" viewBox="0 0 1080 1080">
  <!-- Generator: Adobe Illustrator 30.1.0, SVG Export Plug-In . SVG Version: 2.1.1 Build 136)  -->
  <defs>
    <style>
      .st0 {
        fill: #182f50;
      }

      .st1 {
        fill: #6bb7e1;
      }

      .st2 {
        fill: #67b6df;
      }
    </style>
  </defs>
  <g id="Circulo">
    <circle id="Circulo1" class="st1" cx="632.21" cy="387.45" r="50.07"/>
  </g>
  <g id="Alas">
    <path id="Alas1" class="st0" d="M195.05,366.73l284.91,141.79c20.36,12.85,27.9,38.7,29.82,70.23-8.92-26.04-27.17-39.09-70.9-59.3l-264.71-126.22c12.59,58.64,43.49,100.38,95.74,137.16,16.23,15.24,118.49,54.93,194.47,83.82,22.09,10.73,34.74,31.74,37.44,63.61-4.97-12.59-30.83-27.54-64.6-38.76-75.03-26.46-132.34-50.75-162-66.59,18.71,67.96,67.28,112.49,146.1,133.18,74.98,17.34,100.27,61.36,94.71,121.92l100.54-218.66c21.87-78.41,2.63-136.85-65.73-171.39L96.31,211.35c9.65,66.97,33.57,113.26,98.73,155.38h.02Z"/>
  </g>
  <g id="Letra_P">
    <path id="Letra_P1" class="st2" d="M983.54,580.42c-.49-67.05-40.75-108.33-109.33-113.97h-242.84c24.03,34.61,29.82,76.53,21.87,128.54,20.3-11.22,60.96-12.39,112.11-9.72l16.43-61.27c1.74-7.02,6.98-10.58,15.26-11.18h15.09c13.58,2.83,15.09,13.25,13.08,22.2l-36.91,141.93c-4.02,15.11-9.45,21.2-21.4,23.72h-9.94c-6.03-1.37-11.35-3.29-14.09-7.58-2.58-4.04-2.81-10.25-1.72-17.49l13.61-50.8h-70.7c-17.89,1.99-29.97,9.78-41.08,18.88-13.65,12.13-24.27,27.39-31.36,46.27l-81.94,178.68h107.34l55.75-116.9,1.48-3.03h139.56c88.46-7.71,153.5-89.87,149.75-168.3h0ZM834.79,679.14h-15.24c-8.83-1.06-12.39-6.85-9.3-18.55l28.4-106.37c.66-6.71,4.93-8.68,10.71-8.7h16.56c6.98,2.45,8.59,6.41,7.73,14.07l-29.29,109.7c-1.13,6.21-4.64,9.03-9.59,9.85h0ZM902.46,601.49l-9.03,38.23c-1.3,5.9-4.06,8.19-7.66,8.37h-9.56c-5.7-.27-9.3-3.22-7.07-13.54l9.45-36.16c1.35-7.07,4.68-9.96,9.54-9.67l5.63.22c7.88,1.33,10.62,5.61,8.7,12.52v.02Z"/>
  </g>
</svg>